<mxfile host="app.diagrams.net" agent="Mozilla/5.0 (Macintosh; Intel Mac OS X 10_15_7) AppleWebKit/537.36 (KHTML, like Gecko) Chrome/136.0.0.0 Safari/537.36" version="27.0.9">
  <diagram name="페이지-1" id="vuIk84E9ZnjiC9cssTG-">
    <mxGraphModel dx="1716" dy="681" grid="1" gridSize="10" guides="1" tooltips="1" connect="1" arrows="1" fold="1" page="1" pageScale="1" pageWidth="827" pageHeight="1169" math="0" shadow="0">
      <root>
        <mxCell id="0" />
        <mxCell id="1" parent="0" />
        <mxCell id="w6aSqgwBce9BC8OkfIPm-3" value="" style="edgeStyle=orthogonalEdgeStyle;rounded=0;orthogonalLoop=1;jettySize=auto;html=1;" edge="1" parent="1" source="w6aSqgwBce9BC8OkfIPm-1" target="w6aSqgwBce9BC8OkfIPm-2">
          <mxGeometry relative="1" as="geometry" />
        </mxCell>
        <mxCell id="w6aSqgwBce9BC8OkfIPm-1" value="승무원 결근 통보" style="strokeWidth=2;html=1;shape=mxgraph.flowchart.start_1;whiteSpace=wrap;" vertex="1" parent="1">
          <mxGeometry x="350" y="40" width="100" height="60" as="geometry" />
        </mxCell>
        <mxCell id="w6aSqgwBce9BC8OkfIPm-5" value="" style="edgeStyle=orthogonalEdgeStyle;rounded=0;orthogonalLoop=1;jettySize=auto;html=1;" edge="1" parent="1" source="w6aSqgwBce9BC8OkfIPm-2" target="w6aSqgwBce9BC8OkfIPm-4">
          <mxGeometry relative="1" as="geometry" />
        </mxCell>
        <mxCell id="w6aSqgwBce9BC8OkfIPm-2" value="영업소 :&lt;br&gt;스운솔내 결근 처리" style="rounded=1;whiteSpace=wrap;html=1;strokeWidth=2;" vertex="1" parent="1">
          <mxGeometry x="340" y="180" width="120" height="60" as="geometry" />
        </mxCell>
        <mxCell id="w6aSqgwBce9BC8OkfIPm-9" value="" style="edgeStyle=orthogonalEdgeStyle;rounded=0;orthogonalLoop=1;jettySize=auto;html=1;" edge="1" parent="1" source="w6aSqgwBce9BC8OkfIPm-4" target="w6aSqgwBce9BC8OkfIPm-8">
          <mxGeometry relative="1" as="geometry" />
        </mxCell>
        <mxCell id="w6aSqgwBce9BC8OkfIPm-15" value="" style="edgeStyle=orthogonalEdgeStyle;rounded=0;orthogonalLoop=1;jettySize=auto;html=1;entryX=0.667;entryY=0.05;entryDx=0;entryDy=0;entryPerimeter=0;" edge="1" parent="1" source="w6aSqgwBce9BC8OkfIPm-4" target="w6aSqgwBce9BC8OkfIPm-12">
          <mxGeometry relative="1" as="geometry">
            <mxPoint x="540" y="520" as="targetPoint" />
            <Array as="points">
              <mxPoint x="540" y="350" />
            </Array>
          </mxGeometry>
        </mxCell>
        <mxCell id="w6aSqgwBce9BC8OkfIPm-4" value="승무원 (작성기능)&lt;div&gt;증빙자료 있나?&lt;/div&gt;" style="rhombus;whiteSpace=wrap;html=1;rounded=1;strokeWidth=2;" vertex="1" parent="1">
          <mxGeometry x="310" y="310" width="180" height="80" as="geometry" />
        </mxCell>
        <mxCell id="w6aSqgwBce9BC8OkfIPm-11" value="" style="edgeStyle=orthogonalEdgeStyle;rounded=0;orthogonalLoop=1;jettySize=auto;html=1;" edge="1" parent="1" source="w6aSqgwBce9BC8OkfIPm-8" target="w6aSqgwBce9BC8OkfIPm-10">
          <mxGeometry relative="1" as="geometry" />
        </mxCell>
        <mxCell id="w6aSqgwBce9BC8OkfIPm-13" value="" style="edgeStyle=orthogonalEdgeStyle;rounded=0;orthogonalLoop=1;jettySize=auto;html=1;" edge="1" parent="1" source="w6aSqgwBce9BC8OkfIPm-8" target="w6aSqgwBce9BC8OkfIPm-12">
          <mxGeometry relative="1" as="geometry" />
        </mxCell>
        <mxCell id="w6aSqgwBce9BC8OkfIPm-8" value="인사부 :&lt;br&gt;승인했는가?" style="rhombus;whiteSpace=wrap;html=1;rounded=1;strokeWidth=2;" vertex="1" parent="1">
          <mxGeometry x="110" y="410" width="180" height="80" as="geometry" />
        </mxCell>
        <mxCell id="w6aSqgwBce9BC8OkfIPm-10" value="연차 처리&amp;nbsp;&lt;br&gt;(만근 유지)" style="whiteSpace=wrap;html=1;rounded=1;strokeWidth=2;" vertex="1" parent="1">
          <mxGeometry x="-30" y="520" width="120" height="60" as="geometry" />
        </mxCell>
        <mxCell id="w6aSqgwBce9BC8OkfIPm-17" value="" style="edgeStyle=orthogonalEdgeStyle;rounded=0;orthogonalLoop=1;jettySize=auto;html=1;" edge="1" parent="1" source="w6aSqgwBce9BC8OkfIPm-12" target="w6aSqgwBce9BC8OkfIPm-16">
          <mxGeometry relative="1" as="geometry" />
        </mxCell>
        <mxCell id="w6aSqgwBce9BC8OkfIPm-12" value="결근 처리&lt;br&gt;(만근 깨짐)" style="whiteSpace=wrap;html=1;rounded=1;strokeWidth=2;" vertex="1" parent="1">
          <mxGeometry x="460" y="525" width="120" height="60" as="geometry" />
        </mxCell>
        <mxCell id="w6aSqgwBce9BC8OkfIPm-16" value="민영제:&lt;div&gt;상여금 손실 / 징계가능성 O&lt;/div&gt;" style="whiteSpace=wrap;html=1;rounded=1;strokeWidth=2;" vertex="1" parent="1">
          <mxGeometry x="460" y="665" width="120" height="60" as="geometry" />
        </mxCell>
        <mxCell id="w6aSqgwBce9BC8OkfIPm-18" value="&amp;nbsp;Y" style="text;html=1;align=center;verticalAlign=middle;whiteSpace=wrap;rounded=0;" vertex="1" parent="1">
          <mxGeometry x="200" y="320" width="60" height="30" as="geometry" />
        </mxCell>
        <mxCell id="w6aSqgwBce9BC8OkfIPm-20" value="&amp;nbsp;Y" style="text;html=1;align=center;verticalAlign=middle;whiteSpace=wrap;rounded=0;" vertex="1" parent="1">
          <mxGeometry x="30" y="420" width="60" height="30" as="geometry" />
        </mxCell>
        <mxCell id="w6aSqgwBce9BC8OkfIPm-21" value="N" style="text;html=1;align=center;verticalAlign=middle;whiteSpace=wrap;rounded=0;" vertex="1" parent="1">
          <mxGeometry x="480" y="320" width="60" height="30" as="geometry" />
        </mxCell>
        <mxCell id="w6aSqgwBce9BC8OkfIPm-22" value="N" style="text;html=1;align=center;verticalAlign=middle;whiteSpace=wrap;rounded=0;" vertex="1" parent="1">
          <mxGeometry x="320" y="420" width="60" height="30" as="geometry" />
        </mxCell>
      </root>
    </mxGraphModel>
  </diagram>
</mxfile>
